<svg width="76" height="76" viewBox="0 0 76 76" fill="none" xmlns="http://www.w3.org/2000/svg">
<g id="fluent:crown-24-filled">
<path id="Vector" d="M44.3328 15.8333C44.3328 17.5117 43.6805 19.038 42.6133 20.1717L50.9226 30.5583C51.0355 30.7001 51.1937 30.7988 51.3706 30.838C51.5475 30.8772 51.7326 30.8545 51.8948 30.7737L60.2864 26.5747C60.1051 25.6559 60.1294 24.7085 60.3575 23.8002C60.5856 22.892 61.0119 22.0455 61.6058 21.3214C62.1997 20.5974 62.9464 20.0138 63.7925 19.6124C64.6386 19.211 65.563 19.0019 66.4995 19C68.0564 19.0003 69.5587 19.5742 70.7195 20.6119C71.8802 21.6497 72.6179 23.0787 72.7919 24.6259C72.9658 26.1731 72.5637 27.7302 71.6623 28.9998C70.7609 30.2693 69.4235 31.1624 67.9054 31.5083L62.1928 61.9812C61.9543 63.2513 61.2793 64.3981 60.2847 65.2233C59.2901 66.0484 58.0384 66.5001 56.7461 66.5H19.2528C17.9605 66.5001 16.7088 66.0484 15.7142 65.2233C14.7196 64.3981 14.0446 63.2513 13.8061 61.9812L8.09345 31.5083C6.87939 31.2315 5.77386 30.603 4.91509 29.7013C4.05632 28.7996 3.48241 27.6647 3.26513 26.4386C3.04785 25.2125 3.19684 23.9495 3.69346 22.8076C4.19008 21.6657 5.01231 20.6955 6.05733 20.0184C7.10234 19.3413 8.32379 18.9872 9.56894 19.0005C10.8141 19.0138 12.0277 19.3939 13.058 20.0931C14.0883 20.7924 14.8896 21.78 15.3618 22.9322C15.8339 24.0845 15.9559 25.3503 15.7125 26.5715L24.1041 30.7705C24.2663 30.8513 24.4514 30.874 24.6283 30.8348C24.8052 30.7956 24.9634 30.6969 25.0763 30.5552L33.3856 20.1685C32.6777 19.4156 32.1647 18.501 31.8915 17.5043C31.6183 16.5077 31.5931 15.4593 31.8181 14.4506C32.0432 13.442 32.5116 12.5038 33.1826 11.7178C33.8536 10.9318 34.7068 10.322 35.6676 9.94146C36.6284 9.56096 37.6678 9.42137 38.695 9.53486C39.7222 9.64835 40.706 10.0115 41.5606 10.5926C42.4152 11.1736 43.1146 11.955 43.5978 12.8685C44.081 13.782 44.3333 14.7999 44.3328 15.8333ZM37.9995 53.8333C39.6792 53.8333 41.2901 53.1661 42.4778 51.9784C43.6655 50.7906 44.3328 49.1797 44.3328 47.5C44.3328 45.8203 43.6655 44.2094 42.4778 43.0217C41.2901 41.8339 39.6792 41.1667 37.9995 41.1667C36.3197 41.1667 34.7088 41.8339 33.5211 43.0217C32.3334 44.2094 31.6661 45.8203 31.6661 47.5C31.6661 49.1797 32.3334 50.7906 33.5211 51.9784C34.7088 53.1661 36.3197 53.8333 37.9995 53.8333Z" fill="#F3BD00"/>
</g>
</svg>
